<svg width="36" height="37" viewBox="0 0 36 37" fill="none" xmlns="http://www.w3.org/2000/svg">
<path d="M17.9997 12.9203C18.9619 12.9203 19.7443 13.6874 19.7443 14.6305C19.7443 15.5708 18.9619 16.3378 17.9997 16.3378C17.0376 16.3378 16.2552 15.5708 16.2552 14.6305C16.2552 13.6874 17.0376 12.9203 17.9997 12.9203ZM17.9997 18.7582C20.3239 18.7582 22.2134 16.906 22.2134 14.6305C22.2134 12.3522 20.3239 10.5 17.9997 10.5C15.6756 10.5 13.789 12.3522 13.789 14.6305C13.789 16.906 15.6756 18.7582 17.9997 18.7582ZM19.7037 22.1273C20.5615 21.9342 21.3875 21.6018 22.1496 21.1331C22.7263 20.778 22.9002 20.0308 22.5379 19.4655C22.1728 18.8974 21.4135 18.7269 20.8339 19.0848C19.1097 20.1473 16.8898 20.1473 15.1626 19.0848C14.5859 18.7269 13.8238 18.8974 13.4615 19.4655C13.0993 20.0308 13.2732 20.778 13.8499 21.1331C14.612 21.6018 15.4379 21.9342 16.2957 22.1273L13.9397 24.434C13.4586 24.9056 13.4586 25.6726 13.9397 26.1442C14.1831 26.38 14.4961 26.4993 14.812 26.4993C15.1279 26.4993 15.4437 26.38 15.6872 26.1442L17.9997 23.8772L20.3152 26.1442C20.7963 26.6186 21.5758 26.6186 22.0598 26.1442C22.5408 25.6726 22.5408 24.9056 22.0598 24.434L19.7037 22.1273Z" fill="currentColor"/>
</svg>
