<svg width="36" height="37" viewBox="0 0 36 37" fill="none" xmlns="http://www.w3.org/2000/svg">
<path d="M19.415 10.8635C18.9486 10.8635 18.5109 11.112 18.2302 11.4703C17.9494 11.8285 17.7947 12.2653 17.6819 12.7255C17.5029 13.4656 17.4476 14.2868 17.4344 15.0269C16.1235 15.1184 14.9364 15.5264 13.9505 16.1567C13.5504 15.8036 13.0685 15.6075 12.6065 15.6127C12.0804 15.6179 11.5808 15.8559 11.2094 16.345C10.4998 17.2786 10.5816 18.8059 11.4039 19.7133C11.3531 19.9932 11.3155 20.2808 11.3155 20.5711C11.3155 23.6466 14.3086 26.1363 18.0003 26.1363C21.6919 26.1363 24.685 23.644 24.685 20.5711C24.685 20.2808 24.6474 19.9932 24.5966 19.7133C25.4189 18.8059 25.5007 17.2786 24.7911 16.345C24.4197 15.8559 23.9202 15.6179 23.394 15.6127C22.932 15.6075 22.4501 15.8036 22.05 16.1567C21.0685 15.529 19.8881 15.1211 18.5839 15.0269C18.6015 14.3443 18.648 13.6356 18.7784 13.1021C18.8602 12.7674 18.9574 12.5242 19.0613 12.3908C19.1652 12.2574 19.2404 12.2025 19.415 12.2025C19.793 12.2025 19.8417 12.3306 20.0694 12.6419C20.1843 12.7988 20.3169 12.9949 20.5292 13.1858C20.7414 13.3767 21.0553 13.5415 21.3957 13.5415V12.2025C21.3006 12.2025 21.283 12.1999 21.2188 12.1397C21.1547 12.0796 21.0663 11.941 20.9359 11.7632C20.675 11.4049 20.1688 10.8635 19.415 10.8635ZM23.0934 10.9891C22.2136 10.9891 21.5018 11.8311 21.5018 12.872C21.5018 13.9128 22.2136 14.7549 23.0934 14.7549C23.9732 14.7549 24.685 13.9128 24.685 12.872C24.685 11.8311 23.9732 10.9891 23.0934 10.9891ZM23.0934 11.6585C23.6593 11.6585 24.1191 12.2025 24.1191 12.872C24.1191 13.5415 23.6593 14.0854 23.0934 14.0854C22.5275 14.0854 22.0677 13.5415 22.0677 12.872C22.0677 12.2025 22.5275 11.6585 23.0934 11.6585ZM18.0003 16.073C21.1326 16.073 23.7831 18.1364 23.7831 20.5711C23.7831 23.0085 21.1326 25.0693 18.0003 25.0693C14.8679 25.0693 12.2174 23.0085 12.2174 20.5711C12.2174 18.1364 14.8679 16.073 18.0003 16.073ZM12.6242 16.6797C12.7811 16.6823 12.9447 16.7242 13.1017 16.8052C12.5335 17.3152 12.0826 17.901 11.7753 18.5627C11.5631 18.0448 11.6206 17.3989 11.8814 17.0563C12.0715 16.8052 12.3346 16.6771 12.6242 16.6797ZM23.3764 16.6797C23.6659 16.6771 23.929 16.8052 24.1191 17.0563C24.38 17.3989 24.4374 18.0448 24.2252 18.5627C23.9179 17.901 23.467 17.3152 22.8989 16.8052C23.0558 16.7242 23.2194 16.6823 23.3764 16.6797ZM15.7366 18.3534C15.1707 18.3534 14.7109 18.8974 14.7109 19.5669C14.7109 20.2364 15.1707 20.7803 15.7366 20.7803C16.3026 20.7803 16.7624 20.2364 16.7624 19.5669C16.7624 18.8974 16.3026 18.3534 15.7366 18.3534ZM20.2639 18.3534C19.698 18.3534 19.2382 18.8974 19.2382 19.5669C19.2382 20.2364 19.698 20.7803 20.2639 20.7803C20.8298 20.7803 21.2896 20.2364 21.2896 19.5669C21.2896 18.8974 20.8298 18.3534 20.2639 18.3534ZM15.1884 22.475C15.5488 23.3563 16.6629 24.2115 18.0003 24.2115C19.3377 24.2115 20.4695 23.3563 20.8298 22.475C20.1755 22.9745 19.1431 23.3118 18.0003 23.3118C16.8574 23.3118 15.8428 22.9745 15.1884 22.475Z" fill="currentColor"/>
</svg>
