<svg width="36" height="37" viewBox="0 0 36 37" fill="none" xmlns="http://www.w3.org/2000/svg">
<path d="M25.8574 21.9207C25.8144 21.8518 25.5484 21.2992 24.2683 20.1634C22.9282 18.9741 23.1082 19.1673 24.7223 17.1108C25.7054 15.8584 26.0984 15.0936 25.9754 14.7666C25.8584 14.4549 25.1353 14.5371 25.1353 14.5371L22.7312 14.5505C22.7312 14.5505 22.5531 14.5276 22.4201 14.6031C22.2911 14.6777 22.2081 14.8498 22.2081 14.8498C22.2081 14.8498 21.8271 15.8192 21.3191 16.6433C20.248 18.3823 19.8189 18.4741 19.6439 18.3661C19.2369 18.1146 19.3389 17.3546 19.3389 16.8154C19.3389 15.1299 19.6059 14.4272 18.8179 14.2455C18.5559 14.1853 18.3638 14.1452 17.6948 14.1385C16.8367 14.1299 16.1097 14.1413 15.6986 14.3335C15.4246 14.4616 15.2136 14.7475 15.3426 14.7637C15.5016 14.7838 15.8617 14.8565 16.0527 15.105C16.2997 15.4253 16.2907 16.1462 16.2907 16.1462C16.2907 16.1462 16.4327 18.1299 15.9597 18.3766C15.6346 18.5458 15.1896 18.2007 14.2345 16.6223C13.7455 15.8144 13.3755 14.9205 13.3755 14.9205C13.3755 14.9205 13.3045 14.7542 13.1775 14.6652C13.0234 14.5572 12.8074 14.5228 12.8074 14.5228L10.5213 14.5362C10.5213 14.5362 10.1782 14.5457 10.0522 14.6882C9.94023 14.8153 10.0432 15.0773 10.0432 15.0773C10.0432 15.0773 11.8334 19.0802 13.8595 21.0985C15.7186 22.9484 17.8288 22.827 17.8288 22.827H18.7849C18.7849 22.827 19.0739 22.7964 19.2209 22.6444C19.3569 22.5048 19.3519 22.2428 19.3519 22.2428C19.3519 22.2428 19.3329 21.0162 19.929 20.8355C20.516 20.6577 21.2701 22.021 22.0691 22.5459C22.6732 22.9427 23.1322 22.8557 23.1322 22.8557L25.2693 22.827C25.2693 22.827 26.3874 22.761 25.8574 21.9207Z" fill="currentColor"/>
</svg>
